<svg xmlns="http://www.w3.org/2000/svg" height="16px" fill="#eee" shape-rendering="geometricPrecision" text-rendering="geometricPrecision" image-rendering="optimizeQuality" fill-rule="evenodd" clip-rule="evenodd" viewBox="0 0 512 462.24">
<path d="M211.02 0C132.6 49.71 61.75 73.23.95 67.67-9.67 282.45 69.65 409.3 210.21 462.24c15.15-5.53 29.6-11.96 43.31-19.32a36.277 36.277 0 0 1-12.56-8.15l-.06-.07-.06.07c-3-3-5.48-6.53-7.27-10.43-7.56 3.5-15.34 6.72-23.35 9.64C86.85 387.52 17.23 276.18 26.54 87.65c53.37 4.88 115.56-15.76 184.4-59.4 59.56 46.27 121.03 59.82 183.68 56.54.52 19.96.27 38.97-.7 57.09 8.27 1.21 16.35 4 24.15 8.57 2.25-26.82 3.03-55.47 2.22-86.04C348.92 68.15 278.88 52.71 211.02 0zm55.15 413.12a3.67 3.67 0 0 1-3.68-3.68c0-1.05.15-2.08.39-3.11 5.91-46.78 26.59-47.62 52.6-54.39 7.75-2.02 21.94-3.1 30.2-10.33 4.55-4 7.3-12.13 6.2-18-6.27-5.83-11.11-12.13-12.21-24.14l-.75.01c-1.75-.03-3.44-.41-5-1.31-3.47-1.99-5.37-5.74-6.29-10.07-1.16-5.45-.77-11.93-.2-16.01l.2-.81c1.21-3.37 2.71-5.2 4.62-5.99l.05-.03c-.87-16.23 1.87-41.94-14.79-47 32.91-40.68 70.87-62.82 99.37-26.62 31.75 1.67 45.91 48.47 26.19 73.65h-.83c1.89.79 3.39 2.62 4.6 5.99l.22.81c.57 4.08.95 10.56-.22 16.01-.92 4.33-2.81 8.08-6.28 10.07-1.56.9-3.25 1.28-4.99 1.31l-.76-.01c-1.09 12.01-5.93 18.31-12.2 24.14-1.12 5.87 1.65 14 6.19 18 8.27 7.23 22.45 8.3 30.22 10.33 26 6.77 46.68 7.61 52.59 54.39.24 1.03.39 2.06.39 3.11 0 2.04-1.65 3.68-3.68 3.68H266.17zM208.74 74.84c-53.04 33.61-100.95 49.51-142.06 45.76-7.18 145.23 46.45 231 141.5 266.8.6-.22 1.19-.45 1.79-.67V75.78l-1.23-.94z"/></svg>